<svg width="36" height="51" viewBox="0 0 36 51" fill="none" xmlns="http://www.w3.org/2000/svg">
<path d="M18 36.8789C14.4399 36.8789 10.9598 35.8232 7.99974 33.8454C5.03966 31.8675 2.73255 29.0563 1.37018 25.7672C0.00779915 22.4781 -0.348661 18.8589 0.345873 15.3673C1.04041 11.8756 2.75474 8.66834 5.27209 6.15099C7.78943 3.63365 10.9967 1.91931 14.4884 1.22478C17.98 0.530245 21.5992 0.886705 24.8883 2.24908C28.1774 3.61146 30.9886 5.91857 32.9665 8.87865C34.9443 11.8387 36 15.3189 36 18.8789C36 23.6528 34.1036 28.2312 30.7279 31.6068C27.3523 34.9825 22.7739 36.8789 18 36.8789Z" fill="#FFEBF0"/>
<path d="M20.1992 14.8892C20.5159 14.7283 20.8755 14.672 21.2262 14.7282C21.5556 14.7519 21.8727 14.8627 22.1452 15.0492" fill="white"/>
<path d="M17.0769 14.8892C16.7602 14.7283 16.4006 14.672 16.0499 14.7282C15.7204 14.7522 15.4032 14.8633 15.1309 15.0502" fill="white"/>
<path d="M27.0371 41.1758L29.6701 48.2098C31.9587 47.1274 34.0882 45.7364 35.9991 44.0758C35.5371 42.7198 35.1371 41.6938 35.1371 41.6938L27.0371 41.1758Z" fill="#DA5742"/>
<path d="M6.356 48.3452L9.1 40.9902L1 41.5082C1 41.5172 0.518 42.7572 0 44.3112C1.92373 45.9409 4.06243 47.2983 6.356 48.3452Z" fill="#DA5742"/>
<path d="M27.0371 41.1758L27.9471 43.5678L35.9811 44.0678C35.5441 42.8098 35.1371 41.6938 35.1371 41.6938L27.0371 41.1758Z" fill="#C43D28"/>
<path d="M9.18423 40.7305L8.27423 43.1225L0.115234 43.9175C0.552234 42.6675 1.08823 41.2485 1.08823 41.2485L9.18423 40.7305Z" fill="#C43D28"/>
<path d="M8.84677 30.1577C5.30977 31.7687 1.43777 36.7317 0.00976562 42.5517H6.32977L5.28477 47.8357C9.17858 49.8259 13.4898 50.8618 17.8628 50.8577C22.2528 50.8651 26.5807 49.8213 30.4848 47.8137L29.3778 43.2347L35.7688 42.6637C35.7598 42.6637 34.2868 34.4517 27.5478 30.5637C22.1468 27.4577 13.8278 27.9217 8.84677 30.1577Z" fill="#3D5CFF"/>
<path d="M8.05292 36.5625L4.29492 42.5525L6.42792 42.5435L8.05292 36.5625Z" fill="#224BF4"/>
<path d="M29.3761 43.2305L31.2761 43.0695L27.0371 35.8125L29.3761 43.2305Z" fill="#224BF4"/>
<path d="M6.40969 42.6426C6.38753 42.6361 6.36865 42.6215 6.3568 42.6016C6.34494 42.5818 6.34097 42.5583 6.34569 42.5356L8.13269 35.9116C8.13923 35.8895 8.15387 35.8706 8.17369 35.8587C8.19351 35.8469 8.21707 35.8429 8.23969 35.8476C8.26147 35.8546 8.27988 35.8694 8.29134 35.8892C8.30281 35.9089 8.30649 35.9323 8.30169 35.9546L6.51669 42.5796C6.51162 42.5971 6.50115 42.6125 6.48677 42.6237C6.4724 42.6348 6.45486 42.6411 6.43669 42.6416L6.40969 42.6426Z" fill="#1F1F39"/>
<path d="M29.2078 43.23L26.9228 35.813C26.9191 35.8025 26.9175 35.7914 26.9181 35.7802C26.9188 35.7691 26.9216 35.7582 26.9266 35.7483C26.9315 35.7383 26.9384 35.7294 26.9469 35.7221C26.9554 35.7149 26.9652 35.7094 26.9758 35.706C26.9863 35.7023 26.9974 35.7007 27.0086 35.7013C27.0197 35.702 27.0306 35.7048 27.0405 35.7098C27.0505 35.7147 27.0594 35.7216 27.0667 35.7301C27.0739 35.7386 27.0794 35.7484 27.0828 35.759L29.3768 43.177C29.3805 43.1876 29.3821 43.1988 29.3814 43.2099C29.3806 43.2211 29.3777 43.232 29.3726 43.242C29.3676 43.252 29.3606 43.2609 29.352 43.2681C29.3434 43.2753 29.3335 43.2807 29.3228 43.284C29.3048 43.284 29.2958 43.293 29.2868 43.293C29.2687 43.2922 29.2513 43.2856 29.2371 43.2743C29.2229 43.263 29.2126 43.2475 29.2078 43.23Z" fill="#1F1F39"/>
<path d="M11.6063 15.5936C11.6063 15.5936 9.51729 15.5936 8.95529 14.6836C8.79928 14.4364 8.73966 14.1406 8.78779 13.8523C8.83593 13.5641 8.98845 13.3036 9.21629 13.1206C8.90796 12.717 8.69881 12.2467 8.6057 11.7475C8.51259 11.2482 8.53814 10.7341 8.68029 10.2466C8.86912 9.7972 9.20563 9.42572 9.63419 9.19353C10.0628 8.96134 10.5577 8.88233 11.0373 8.96957C11.0373 8.96957 9.83229 6.83657 11.3063 5.23857C13.1063 3.27457 16.1263 5.23857 16.1263 5.23857C16.1844 4.88127 16.3681 4.55644 16.6444 4.32253C16.9206 4.08861 17.2713 3.96097 17.6333 3.96257C18.9333 3.96257 18.9333 4.74857 18.9333 4.74857C19.3099 4.282 19.8176 3.93898 20.3911 3.76376C20.9645 3.58855 21.5772 3.58918 22.1503 3.76557C25.1583 4.64957 24.6403 7.98757 24.6403 7.98757C24.8169 7.95059 24.9991 7.94934 25.1762 7.98389C25.3533 8.01844 25.5217 8.08809 25.6715 8.18874C25.8213 8.28939 25.9494 8.419 26.0483 8.56994C26.1471 8.72087 26.2148 8.89007 26.2473 9.06757C26.366 9.43466 26.3388 9.83339 26.1712 10.1809C26.0036 10.5284 25.7085 10.798 25.3473 10.9336C25.3473 10.9336 26.5613 10.7336 26.8643 11.7196C26.9937 12.1318 26.9857 12.5749 26.8414 12.9822C26.6971 13.3894 26.4244 13.7388 26.0643 13.9776L25.3593 17.4146L11.8983 17.9676L11.6063 15.5936Z" fill="#1F1F39"/>
<path d="M9.27872 15.2889C7.82372 15.9589 7.67172 17.9759 8.76972 19.2439C9.86772 20.5119 12.6347 20.2169 12.6347 20.2169L12.2327 15.6819C11.807 15.3863 11.317 15.1964 10.8032 15.1281C10.2895 15.0597 9.76689 15.1149 9.27872 15.2889Z" fill="#C43D28"/>
<path d="M26.7193 15.2887C28.1743 15.9577 28.3263 17.9757 27.2283 19.2427C26.1303 20.5097 23.3633 20.2157 23.3633 20.2157L24.1043 15.6187C24.4677 15.3288 24.9041 15.1445 25.3654 15.0863C25.8267 15.0281 26.2952 15.0981 26.7193 15.2887Z" fill="#C43D28"/>
<path d="M24.1484 19.279C24.2152 18.7437 24.4221 18.2356 24.7484 17.806C25.1768 17.2124 25.7875 16.7752 26.4874 16.561C26.5015 16.5569 26.5163 16.5556 26.5308 16.5575C26.5454 16.5593 26.5594 16.5641 26.572 16.5716C26.5846 16.5791 26.5955 16.5892 26.604 16.6011C26.6125 16.6131 26.6184 16.6267 26.6214 16.641C26.6256 16.6551 26.6268 16.6699 26.625 16.6844C26.6232 16.699 26.6184 16.713 26.6109 16.7256C26.6033 16.7382 26.5933 16.7491 26.5813 16.7576C26.5694 16.7661 26.5558 16.7721 26.5414 16.775C25.8941 16.975 25.3278 17.377 24.9254 17.922C24.6237 18.3182 24.4298 18.7857 24.3624 19.279C24.3619 19.3073 24.3505 19.3342 24.3305 19.3541C24.3106 19.3741 24.2837 19.3855 24.2554 19.386C24.2272 19.3855 24.2003 19.3741 24.1803 19.3541C24.1604 19.3342 24.149 19.3073 24.1484 19.279V19.279Z" fill="#1F1F39"/>
<path d="M12.1253 19.2794C12.0573 18.7868 11.8646 18.3197 11.5653 17.9224C11.1648 17.3757 10.5967 16.9747 9.94732 16.7804C9.91946 16.7723 9.89564 16.754 9.88048 16.7293C9.86533 16.7045 9.85992 16.675 9.86532 16.6464C9.8741 16.6186 9.89277 16.5948 9.91781 16.5797C9.94286 16.5646 9.97255 16.5592 10.0013 16.5644C10.7031 16.7739 11.3152 17.2108 11.7413 17.8064C12.0713 18.2339 12.2787 18.7431 12.3413 19.2794C12.3413 19.2935 12.3386 19.3074 12.3332 19.3204C12.3278 19.3334 12.3199 19.3452 12.31 19.3551C12.3 19.365 12.2882 19.3729 12.2753 19.3783C12.2623 19.3837 12.2484 19.3865 12.2343 19.3865C12.2203 19.3865 12.2064 19.3837 12.1934 19.3783C12.1804 19.3729 12.1686 19.365 12.1587 19.3551C12.1487 19.3452 12.1408 19.3334 12.1355 19.3204C12.1301 19.3074 12.1273 19.2935 12.1273 19.2794H12.1253Z" fill="#1F1F39"/>
<path d="M14.9646 24.3043L14.5986 29.3743C14.5986 29.3743 15.1076 30.4903 17.7986 30.4903C20.7176 30.4903 21.5206 29.3743 21.5206 29.3743L21.3826 24.3803C21.3826 24.3803 23.2036 24.0853 24.0826 20.8013C24.6084 18.7838 24.7565 16.6866 24.5196 14.6153C24.5196 14.6153 20.2196 15.2843 18.7626 13.4993C17.3056 11.7143 15.8366 9.92426 13.7236 10.8173C11.6106 11.7103 11.8756 17.4673 12.4296 20.2073C12.7784 21.8238 13.6737 23.2706 14.9646 24.3043Z" fill="#DA5742"/>
<path d="M15.9094 17.4675C15.7182 17.4497 15.5417 17.3574 15.418 17.2105C15.2943 17.0636 15.2334 16.8739 15.2484 16.6825C15.2331 16.4909 15.2939 16.301 15.4176 16.1539C15.5413 16.0067 15.718 15.9143 15.9094 15.8965C16.1008 15.9143 16.2775 16.0067 16.4012 16.1539C16.5249 16.301 16.5857 16.4909 16.5704 16.6825C16.5854 16.8739 16.5245 17.0636 16.4008 17.2105C16.2771 17.3574 16.1006 17.4497 15.9094 17.4675Z" fill="#1F1F39"/>
<path d="M20.7219 17.4675C20.5307 17.4497 20.3542 17.3574 20.2305 17.2105C20.1068 17.0636 20.0459 16.8739 20.0609 16.6825C20.0456 16.4909 20.1064 16.301 20.2301 16.1539C20.3538 16.0067 20.5305 15.9143 20.7219 15.8965C20.9133 15.9143 21.09 16.0067 21.2137 16.1539C21.3374 16.301 21.3982 16.4909 21.3829 16.6825C21.3979 16.8739 21.337 17.0636 21.2133 17.2105C21.0896 17.3574 20.9131 17.4497 20.7219 17.4675Z" fill="#1F1F39"/>
<path d="M17.8101 17.7621C18.0331 18.2081 18.6101 17.9851 18.6101 17.9851C18.6101 17.9851 18.0301 17.8331 18.0301 17.3851C18.0301 16.9371 17.9891 15.4141 17.9891 15.4141C17.7995 16.1814 17.739 16.9749 17.8101 17.7621Z" fill="#1F1F39"/>
<path d="M14.7578 28.0047C14.8028 27.9917 19.5868 26.1347 20.4888 25.2867C20.4888 24.7687 20.5068 24.3867 20.5068 24.3867C19.5651 24.7899 18.5352 24.9436 17.5168 24.8327C16.638 24.8365 15.7681 24.6566 14.9628 24.3047C14.9718 24.7597 14.8028 27.8217 14.7578 28.0047Z" fill="#C43D28"/>
<path d="M21.9268 19.4041C21.1428 19.4041 20.5078 19.0051 20.5078 18.5121C20.5078 18.0191 21.1428 17.6191 21.9268 17.6191C22.7108 17.6191 23.3468 18.0191 23.3468 18.5121C23.3468 19.0051 22.7078 19.4041 21.9268 19.4041Z" fill="#C43D28"/>
<path d="M14.419 19.4041C13.635 19.4041 13 19.0051 13 18.5121C13 18.0191 13.635 17.6191 14.419 17.6191C15.203 17.6191 15.839 18.0191 15.839 18.5121C15.839 19.0051 15.2 19.4041 14.419 19.4041Z" fill="#C43D28"/>
<path d="M18.3014 19.6099C18.6844 19.449 19.0448 19.2389 19.3734 18.9849C19.3734 18.9849 19.5524 18.8959 19.6414 18.9849C19.5734 19.25 19.451 19.498 19.282 19.7132C19.1129 19.9284 18.9009 20.1061 18.6594 20.2349C18.4179 20.3148 18.157 20.3145 17.9156 20.2339C17.6743 20.1533 17.4655 19.9969 17.3204 19.7879C17.0524 19.4309 17.4094 19.5199 17.4094 19.5199C17.6961 19.617 18.0011 19.6478 18.3014 19.6099Z" fill="white"/>
<path d="M14.9113 22.4647C16.2503 22.8217 16.0003 23.4467 16.5803 23.1787C17.1603 22.9107 17.3303 22.3787 18.5083 22.5537C19.6863 22.7287 19.4273 23.3537 20.1773 23.2677C21.147 22.9734 22.0339 22.4551 22.7663 21.7547C23.3553 21.2147 24.1853 20.3227 24.1853 20.3227C24.1853 20.3227 23.6493 24.0717 20.6683 24.9647C18.4273 25.6337 15.2503 25.3217 13.8303 23.2647C13.0804 22.3293 12.5635 21.2291 12.3223 20.0547C12.3223 20.0547 13.5723 22.1077 14.9113 22.4647Z" fill="#1F1F39"/>
<path d="M16.2755 22.0202C16.2627 22.0129 16.2516 22.0029 16.243 21.9909C16.2345 21.9788 16.2287 21.9651 16.2262 21.9505C16.2236 21.936 16.2242 21.9211 16.2281 21.9068C16.232 21.8926 16.2389 21.8794 16.2485 21.8682L16.6055 21.3322C16.6128 21.3193 16.6228 21.3082 16.6348 21.2997C16.6468 21.2911 16.6606 21.2854 16.6751 21.2828C16.6897 21.2802 16.7046 21.2809 16.7188 21.2847C16.7331 21.2886 16.7463 21.2956 16.7575 21.3052C16.7704 21.3124 16.7815 21.3224 16.79 21.3344C16.7985 21.3465 16.8043 21.3603 16.8069 21.3748C16.8095 21.3893 16.8088 21.4042 16.8049 21.4185C16.8011 21.4327 16.7941 21.4459 16.7845 21.4572L16.4275 21.9932C16.4172 22.007 16.4037 22.0181 16.3883 22.0258C16.3728 22.0334 16.3558 22.0373 16.3385 22.0372C16.3166 22.0357 16.2952 22.03 16.2755 22.0202Z" fill="#1F1F39"/>
<path d="M14.376 21.6448C14.3602 21.6208 14.3541 21.5917 14.3591 21.5634C14.3642 21.5351 14.3799 21.5098 14.403 21.4928L14.938 21.1358C14.962 21.1199 14.9911 21.1139 15.0194 21.1189C15.0477 21.1239 15.073 21.1396 15.09 21.1628C15.1065 21.1869 15.1129 21.2165 15.1078 21.2453C15.1028 21.274 15.0867 21.2997 15.063 21.3168L14.528 21.6718C14.5088 21.6828 14.4871 21.6886 14.465 21.6888C14.4478 21.6889 14.4307 21.685 14.4153 21.6774C14.3998 21.6698 14.3864 21.6586 14.376 21.6448Z" fill="#1F1F39"/>
<path d="M18.1953 22.1077V21.6617C18.1958 21.6335 18.2073 21.6066 18.2272 21.5866C18.2472 21.5666 18.2741 21.5552 18.3023 21.5547C18.3301 21.5566 18.3562 21.5684 18.3759 21.5881C18.3956 21.6078 18.4074 21.6339 18.4093 21.6617V22.1077C18.4105 22.1221 18.4086 22.1366 18.4036 22.1502C18.3987 22.1637 18.3909 22.1761 18.3807 22.1863C18.3705 22.1966 18.3583 22.2045 18.3447 22.2096C18.3312 22.2147 18.3167 22.2167 18.3023 22.2157C18.2739 22.2152 18.2469 22.2036 18.2269 22.1834C18.2069 22.1633 18.1956 22.1361 18.1953 22.1077V22.1077Z" fill="#1F1F39"/>
<path d="M19.892 21.8779L19.713 21.4299C19.7076 21.4164 19.7049 21.4019 19.7051 21.3874C19.7053 21.3728 19.7085 21.3584 19.7143 21.3451C19.7202 21.3318 19.7287 21.3197 19.7393 21.3097C19.7499 21.2998 19.7624 21.292 19.776 21.2869C19.7895 21.2816 19.8038 21.279 19.8183 21.2793C19.8328 21.2796 19.847 21.2828 19.8602 21.2887C19.8734 21.2945 19.8853 21.303 19.8953 21.3135C19.9052 21.324 19.9129 21.3364 19.918 21.3499L20.097 21.7959C20.1025 21.8094 20.1052 21.8239 20.105 21.8384C20.1047 21.853 20.1016 21.8674 20.0957 21.8807C20.0898 21.894 20.0814 21.906 20.0708 21.916C20.0602 21.926 20.0477 21.9338 20.034 21.9389C20.026 21.9479 20.017 21.9479 19.999 21.9479C19.9763 21.948 19.954 21.9414 19.935 21.929C19.916 21.9165 19.901 21.8988 19.892 21.8779Z" fill="#1F1F39"/>
<path d="M21.9095 21.7525L21.2845 21.3955C21.2587 21.3809 21.2396 21.3569 21.2313 21.3286C21.2229 21.3002 21.2258 21.2697 21.2395 21.2435C21.254 21.2177 21.278 21.1986 21.3064 21.1902C21.3348 21.1818 21.3653 21.1848 21.3915 21.1985L22.0165 21.5555C22.0384 21.5679 22.0556 21.5871 22.0655 21.6103C22.0754 21.6334 22.0774 21.6591 22.0713 21.6835C22.0652 21.7079 22.0512 21.7296 22.0316 21.7453C22.0119 21.7611 21.9876 21.7699 21.9625 21.7705C21.9437 21.7685 21.9256 21.7623 21.9095 21.7525Z" fill="#1F1F39"/>
<g opacity="0.592">
<g opacity="0.592">
<path opacity="0.592" d="M12.9866 34.7667C13.0725 34.8114 13.1666 34.8384 13.2631 34.846C13.3597 34.8535 13.4568 34.8415 13.5486 34.8107C13.7806 34.7487 14.0216 34.6317 14.2536 34.7567C14.3526 34.8108 14.4308 34.8962 14.476 34.9995C14.5212 35.1029 14.5309 35.2183 14.5036 35.3277C14.4856 35.4077 14.6106 35.4437 14.6286 35.3637C14.6542 35.263 14.6548 35.1575 14.6302 35.0566C14.6056 34.9557 14.5565 34.8623 14.4874 34.7847C14.4183 34.7071 14.3313 34.6477 14.2338 34.6116C14.1364 34.5755 14.0316 34.5638 13.9286 34.5777C13.7004 34.6478 13.466 34.6957 13.2286 34.7207C12.9776 34.7037 12.9146 34.4717 12.8706 34.2487C12.8688 34.2403 12.8654 34.2324 12.8606 34.2254C12.8558 34.2184 12.8496 34.2124 12.8425 34.2077C12.8353 34.2031 12.8273 34.1999 12.8189 34.1984C12.8106 34.1968 12.8019 34.1969 12.7936 34.1987C12.7853 34.2005 12.7774 34.2039 12.7703 34.2087C12.7633 34.2135 12.7573 34.2197 12.7527 34.2268C12.748 34.234 12.7448 34.242 12.7433 34.2504C12.7417 34.2587 12.7418 34.2673 12.7436 34.2757C12.7588 34.4644 12.8458 34.6401 12.9866 34.7667Z" fill="#BFE3C6"/>
<path opacity="0.592" d="M11.7298 39.2028C11.8341 39.4008 11.9959 39.5625 12.1938 39.6668C12.3988 39.7918 12.6138 39.9528 12.5598 40.2198C12.4968 40.5088 12.2208 40.6668 11.9878 40.7998C11.9741 40.8098 11.9646 40.8246 11.9612 40.8413C11.9579 40.858 11.9609 40.8753 11.9697 40.8899C11.9785 40.9044 11.9924 40.9152 12.0087 40.92C12.025 40.9248 12.0426 40.9233 12.0578 40.9158C12.3047 40.802 12.5104 40.6149 12.6468 40.3798C12.6949 40.2801 12.7121 40.1683 12.6963 40.0587C12.6804 39.9491 12.6322 39.8468 12.5578 39.7648C12.3988 39.5948 12.1668 39.5148 12.0058 39.3538C11.9067 39.2538 11.8401 39.1263 11.8146 38.9879C11.7891 38.8494 11.8059 38.7065 11.8628 38.5778C11.8808 38.5088 11.7468 38.4798 11.7208 38.5508C11.678 38.6544 11.6567 38.7656 11.6583 38.8777C11.6598 38.9898 11.6842 39.1004 11.7298 39.2028Z" fill="#BFE3C6"/>
<path opacity="0.592" d="M4.7484 36.8728C4.73057 36.7904 4.73812 36.7045 4.77008 36.6265C4.80204 36.5485 4.85689 36.482 4.9274 36.4358C5.2664 36.2218 5.6054 36.5358 5.9364 36.5608C6.2364 36.5878 6.4364 36.3198 6.5164 36.0518C6.55352 35.9185 6.56237 35.7789 6.54239 35.642C6.52242 35.5051 6.47405 35.3739 6.4004 35.2568C6.39023 35.2437 6.37563 35.2347 6.35933 35.2317C6.34303 35.2286 6.32616 35.2315 6.31191 35.24C6.29765 35.2485 6.28699 35.2619 6.28192 35.2777C6.27685 35.2935 6.27774 35.3106 6.2844 35.3258C6.36817 35.4557 6.41422 35.6062 6.4174 35.7607C6.42058 35.9152 6.38076 36.0676 6.3024 36.2008C6.26547 36.2851 6.19819 36.3525 6.11391 36.3895C6.02963 36.4266 5.9345 36.4306 5.8474 36.4008C5.69 36.3378 5.52906 36.284 5.3654 36.2398C5.23352 36.2034 5.0933 36.2117 4.96665 36.2635C4.84001 36.3152 4.73407 36.4075 4.6654 36.5258C4.61492 36.6625 4.59945 36.8096 4.6204 36.9538C4.62886 37.1317 4.65567 37.3083 4.7004 37.4808C4.7184 37.5608 4.8434 37.5258 4.8254 37.4448C4.7779 37.2577 4.75206 37.0658 4.7484 36.8728Z" fill="#BFE3C6"/>
<path opacity="0.592" d="M9.26633 46.0126C9.30305 45.9994 9.34232 45.995 9.38102 45.9997C9.41973 46.0044 9.45682 46.0181 9.48933 46.0396C9.61822 46.1253 9.73786 46.2241 9.84633 46.3346C10.0782 46.529 10.3591 46.6556 10.6583 46.7006C10.7881 46.721 10.9208 46.7117 11.0464 46.6734C11.1721 46.635 11.2874 46.5687 11.3836 46.4794C11.4799 46.39 11.5547 46.28 11.6023 46.1575C11.6498 46.0351 11.669 45.9035 11.6583 45.7726C11.6413 45.6916 11.5163 45.7266 11.5343 45.8076C11.5482 45.9633 11.5089 46.1192 11.4228 46.2498C11.3367 46.3804 11.209 46.4779 11.0603 46.5266C10.9026 46.5718 10.7368 46.5811 10.5751 46.554C10.4133 46.5268 10.2596 46.4638 10.1253 46.3696C9.98397 46.2785 9.8517 46.174 9.73033 46.0576C9.63807 45.9632 9.52024 45.8979 9.39133 45.8696C9.17733 45.8436 8.94533 46.0576 9.05233 46.2716C9.08833 46.3436 9.20433 46.2806 9.16833 46.2006C9.13233 46.1206 9.20433 46.0486 9.26633 46.0126Z" fill="#BFE3C6"/>
<path opacity="0.592" d="M18.3438 44.2644C18.352 44.3897 18.3904 44.5111 18.4557 44.6184C18.521 44.7256 18.6112 44.8155 18.7188 44.8804C18.9417 45.0504 19.2638 45.2014 19.3188 45.5054C19.3728 45.8444 18.9798 45.9164 18.7298 45.8894C18.6407 45.8804 18.6497 46.0144 18.7298 46.0234C18.8506 46.0487 18.9761 46.0404 19.0926 45.9995C19.2091 45.9586 19.3122 45.8866 19.3908 45.7914C19.4483 45.6739 19.4637 45.5403 19.4344 45.4128C19.4051 45.2854 19.3328 45.1719 19.2297 45.0914C19.0247 44.8864 18.7297 44.7914 18.5687 44.5384C18.5002 44.3854 18.483 44.2143 18.5196 44.0507C18.5561 43.8871 18.6446 43.7396 18.7718 43.6304C18.8257 43.5774 18.7278 43.4794 18.6738 43.5414C18.4785 43.7335 18.361 43.991 18.3438 44.2644V44.2644Z" fill="#BFE3C6"/>
<path opacity="0.592" d="M25.823 45.8347C25.7592 45.9489 25.728 46.0784 25.7328 46.209C25.7375 46.3397 25.7781 46.4666 25.85 46.5757C25.9391 46.7052 26.0026 46.8504 26.037 47.0037C26.0543 47.1535 26.0127 47.3041 25.921 47.4238C25.8729 47.4835 25.8128 47.5325 25.7446 47.5675C25.6764 47.6026 25.6016 47.6229 25.525 47.6271C25.4484 47.6313 25.3718 47.6194 25.3002 47.5922C25.2285 47.5649 25.1634 47.5228 25.109 47.4688C25.0957 47.4555 25.0777 47.448 25.059 47.448C25.0402 47.448 25.0223 47.4555 25.009 47.4688C24.9957 47.482 24.9883 47.5 24.9883 47.5187C24.9883 47.5375 24.9957 47.5555 25.009 47.5687C25.1103 47.663 25.2368 47.7258 25.3731 47.7496C25.5094 47.7734 25.6497 47.7571 25.777 47.7027C25.8999 47.643 26.0026 47.5485 26.0724 47.4311C26.1422 47.3136 26.1762 47.1783 26.17 47.0417C26.154 46.7277 25.859 46.5037 25.859 46.1827C25.8617 46.0344 25.92 45.8924 26.0224 45.785C26.1249 45.6775 26.2639 45.6125 26.412 45.6028C26.4298 45.6028 26.4468 45.5957 26.4594 45.5831C26.4719 45.5706 26.479 45.5535 26.479 45.5358C26.479 45.518 26.4719 45.5009 26.4594 45.4884C26.4468 45.4758 26.4298 45.4688 26.412 45.4688C26.2908 45.4745 26.173 45.5111 26.0699 45.5752C25.9668 45.6393 25.8818 45.7286 25.823 45.8347Z" fill="#BFE3C6"/>
<path opacity="0.592" d="M21.8881 33.5341C22.0025 33.7722 22.1598 33.9871 22.3521 34.1681C22.4591 34.2841 22.5521 34.4541 22.3791 34.5611C22.2291 34.6427 22.0581 34.6775 21.8881 34.6611C21.8703 34.6611 21.8533 34.6682 21.8407 34.6808C21.8282 34.6933 21.8211 34.7104 21.8211 34.7281C21.8211 34.7459 21.8282 34.7629 21.8407 34.7755C21.8533 34.7881 21.8703 34.7951 21.8881 34.7951C22.1111 34.8041 22.5041 34.7591 22.5931 34.5181C22.6821 34.2771 22.4501 34.0791 22.3071 33.9271C22.0876 33.7178 21.9593 33.4304 21.9501 33.1271C21.95 32.9938 21.9911 32.8636 22.0677 32.7545C22.1443 32.6453 22.2527 32.5624 22.3781 32.5171C22.3872 32.5148 22.3957 32.5108 22.4032 32.5052C22.4107 32.4996 22.417 32.4926 22.4218 32.4846C22.4266 32.4765 22.4297 32.4676 22.4311 32.4584C22.4324 32.4491 22.4319 32.4397 22.4296 32.4306C22.4273 32.4216 22.4233 32.4131 22.4177 32.4056C22.4121 32.3981 22.4051 32.3918 22.397 32.387C22.389 32.3822 22.3801 32.379 22.3708 32.3777C22.3616 32.3763 22.3522 32.3768 22.3431 32.3791C22.2351 32.4222 22.137 32.4869 22.055 32.5693C21.9729 32.6517 21.9086 32.7501 21.8659 32.8583C21.8233 32.9665 21.8033 33.0823 21.8071 33.1985C21.8109 33.3147 21.8385 33.429 21.8881 33.5341Z" fill="#BFE3C6"/>
<path opacity="0.592" d="M21.781 38.7373C22.049 38.8803 22.102 39.2103 22.192 39.4693C22.2251 39.5969 22.2875 39.715 22.3743 39.8141C22.4612 39.9133 22.57 39.9907 22.692 40.0403C22.9546 40.134 23.2415 40.134 23.504 40.0403C23.654 39.9721 23.7888 39.8745 23.9006 39.7535C24.0124 39.6324 24.0989 39.4903 24.155 39.3353C24.191 39.2553 24.055 39.2193 24.03 39.2993C23.9756 39.4465 23.8899 39.5802 23.7789 39.6912C23.668 39.8022 23.5343 39.8879 23.387 39.9423C23.2417 39.9857 23.0881 39.9937 22.939 39.9657C22.79 39.9377 22.6497 39.8745 22.53 39.7813C22.316 39.5813 22.298 39.2633 22.191 39.0043C22.1495 38.8935 22.0827 38.7938 21.9959 38.7133C21.9091 38.6327 21.8047 38.5735 21.691 38.5403C21.5602 38.5081 21.4233 38.5101 21.2936 38.5462C21.1638 38.5823 21.0455 38.6512 20.95 38.7463C20.879 38.8263 20.968 38.9163 21.03 38.8533C21.1249 38.7539 21.25 38.6886 21.3858 38.6676C21.5216 38.6466 21.6606 38.6711 21.781 38.7373Z" fill="#BFE3C6"/>
<path opacity="0.592" d="M30.0008 36.2129C29.9269 36.4394 29.929 36.6838 30.0067 36.9089C30.0518 37.1409 30.0608 37.4089 29.8278 37.5429C29.7254 37.5946 29.6077 37.6067 29.497 37.577C29.3863 37.5473 29.2905 37.4779 29.2278 37.3819C29.1828 37.3109 29.0668 37.3819 29.1118 37.4529C29.1695 37.5443 29.2502 37.6188 29.3459 37.669C29.4416 37.7192 29.5488 37.7433 29.6568 37.7389C29.7636 37.7303 29.8658 37.6912 29.9512 37.6264C30.0366 37.5615 30.1017 37.4736 30.1387 37.3729C30.1804 37.1195 30.1636 36.8599 30.0897 36.6139C30.0611 36.4827 30.0833 36.3455 30.1517 36.2299C30.1807 36.1825 30.2241 36.1456 30.2756 36.1247C30.3271 36.1038 30.3839 36.1 30.4377 36.1139C30.5178 36.1229 30.5538 35.9979 30.4737 35.9709C30.3791 35.9498 30.28 35.9624 30.1936 36.0066C30.1072 36.0508 30.039 36.1238 30.0008 36.2129Z" fill="#BFE3C6"/>
</g>
<path opacity="0.592" d="M35.4336 41.4061L35.4428 41.4946L28.935 42.1725L28.9258 42.084L35.4336 41.4061Z" fill="#BFE3C6"/>
<path opacity="0.592" d="M6.75601 41.0451L6.75792 41.1341L0.314412 41.2726L0.3125 41.1836L6.75601 41.0451Z" fill="#BFE3C6"/>
</g>
</svg>
